<svg fill="none" xmlns="http://www.w3.org/2000/svg" viewBox="0 0 192 192"><g clip-path="url(#a)"><path d="M0 0h192v192H0z" fill="url(#b)"/><path d="m71.2 27.7 1.2.2 12 2.6 2.6.6v.6l.8-.1q1.4-.2 2.9.1l1 .2 1 .3 1.1.2 5.8 1.2v.7h.6q3 .3 5.8 1h.8l3.6.9 4.5 1 15.5 3q1.3 0 2.5.4l.7.1c2.2.5 4.4 1.2 5.8 3l.4.5c.4.5.4.5.4 1.2l.6.3-.3.6.6.3q.4 6.9-.9 13.6l-1 7.2-.8 5-.7 5.7c-.3 2.7-.3 2.7-.7 4q-.6 2.5-.7 5-.5 5.3-1.4 10.4v.6l-2.4 16.4-2.7 19-.1.5-1.4 9.1-.3 2.4c-1 11.6-1 11.6-2.7 15.2h-.6l-.2.5q-.3 1.1-1 1.9l-.6.6c-1.4 1.4-4.2 1-6.1.9-6.5-.3-13-1.8-19.2-3.2l-7.3-1.5q-2.3-.4-4.6-1.1l-1.5-.3a191 191 0 0 1-19.4-4.5l-7-1.8-1-.3q-.6 0-1.1-.3l-1-.2c-.7-.2-.7-.2-1-.6l-1.4-.2q-4.7-.9-7.5-4.8-1.5-2.9-1.4-6v-.9c.1-5 1-9.9 1.8-14.8l.7-4.7a1173 1173 0 0 1 5.8-36.5l1-6.3.4-2.3.2-1q.4-2.4.4-4.8l.6-2q1.3-4.6 1.4-9.6v-1l.1-.9.4-1.7.3-2h.7L57 51q-.2-1.7.2-3.3l.3-.3.3-2.4c.3-2.3.3-2.3.6-3.3h-.6l.3-2.3 1-.3-.7-1.9q.6 0 1-.3V36c0-2.4 1-4.8 1.9-7v-.6c3.3-2 6.3-1.3 9.9-.6" fill="#D4DFE8"/><path d="M68.3 15.3v.3q-1.3 0-2.6.3c.4.5.4.5 1.6.3h2.3l.6-.3 1.5.4.8.3q.5 0 .8.3l4.5.9.3.3 2.4.2c.8.1.8.1 1.7.8h1q2.3 0 4.4 1v-.7l1.3.3-.4.3 2.7.5 1.1.2 2.7.4.7.1 3 .6 4 .5h.7l.7.1c.6.2.6.2 1.2.8a7 7 0 0 0 3 .6c.9 0 1.3.2 2.1.7v-.7l2.4.7c1 .3 1 .3 2 .3l.6.1q1.5.3 3.2.2v.6l4.2.7V26h1.5v.7l2-.3-.4.6c2 .3 2 .3 4.1 0v.6l3.2 1v-.7l1.3.4-.3.3h.8c1 0 1 0 2 .3 1 .4 1 .4 2 .1 1.8-.2 3.5.4 5.3.8l1.3.4 1.2.3v.6l.8.2c3 1.2 4.7 3.9 6 6.7 2.8 7.4 1.4 15.4.5 23l-.5 4.5-.1 1-.1.9-.1.8c-.1.6-.1.6-.5 1.2l-.2 2.2-1 7.1-.3 1.8-2 13.8-1.5 11v.7l-.6 3.3-1.5 10.3-.1 1-1.9 12.7-1.2 9-.1.8c-.3 1.7-.3 1.7-.6 2.4l-.4 3.4-.1.7c-1 9-2.4 17.3-9 24l-.6.6c-.9.9-1.3 1-2.6 1.1h-1v.6c-5 3.1-14.8.4-20.1-.7l-6-1q-4.8-.8-9.6-2l-3.1-.7a344 344 0 0 1-39.8-10.2c-2.4-.7-4-1.8-6-3.5l-.6-.5c-2.1-1.6-3-3.8-4-6.1l-.5-.9q-1.3-3.3-1.5-6.7v-.8c-.5-6.7.7-13.2 1.7-19.8l.1-1 .2-.8.1-.7.4-1.6.3-2.4 1.1-7.8 1-6.6c.4-2.1.4-2.1.5-4.2q0-1.9.4-3.8l.1-.6c.7-3.6.7-3.6 1.7-5l.2-1.9q0-1.5.4-3 .5-2 .4-4V77l.6 1 .3-2.9h-.3v-1.9l.6.7.3-1.3h-.6v-1.9l.6 1v-1.2q0-1.5.4-3l.1-1.3.5-2.1-.3-1.6.6-.3.2-1.4V60l.1-2v-2.2l.7-.3.2-1.9q.1-1 .7-1.9l-.3-1 .6-1.5v-1.6l.5-2.7q0-1.3.5-2.6c.3-1 .3-1 .3-2s0-1 .6-1.9l-.3-2 .3-.9-.6-.3.3-.5.3-.7.4-.7.3-.6-.4-.6.5-2.7.5-1.5v-.8c.5-1.8 1-4 2.5-5.2h.7l.2-.5a9 9 0 0 1 4.8-4.2v-1a8 8 0 0 1 6.4-1m-7 13c-.3.7-.3.7-.3 1.5l-.5 1q-1.4 2.8-1.1 6l-1 .3.7 2-1 .2q0 1.1-.3 2.3h.6v.6c-.5 2-.5 2-.8 4.2-.1.9-.1.9-.4 1.2L57 49l-.1.7c0 .8 0 .8.3 1.7h-.7v1.2l-.4 2-.4 3.1c-.7 8.4-.7 8.4-2 11.1l-.1 1.6a81 81 0 0 1-1.8 12L50 93l-.2 1.1-5 31.7c-1 7-1 7-1.5 14v.8q0 4.2 3 7.2 3 2.7 7.3 3.1l1.8.7 5 1.5.7.2q4.7 1.3 9.4 2.3l5.9 1.4 11.4 2.5 9.4 2 4.1.8a88 88 0 0 0 17.9 2.4q2.5.2 4.3-1.6c.9-1 .9-1 1-2.3h.7c1.4-3.8 1.9-7.8 2.4-11.8l.1-1 .2-.8v-.8c.2-.9.2-.9.1-2q0-1.5.4-3.2 1.1-5.7 1.9-11.5l.3-1.9a477 477 0 0 0 3.3-24.2l3.1-22.2q.9-3.9 1.2-7.8v-1l.2-1c0-.8 0-.8.4-1.4l.2-1.6.1-1 .1-1 1-7.2q1.2-6.5.8-13h-.6l.3-1h-.6l-.2-.6a6 6 0 0 0-3.3-3q-3.9-1.1-7.8-1.8l-5.8-1.2-1.3-.2-8.5-1.7h-.7l-4.7-1-4-1-1.6-.3-.7-.1c-.8-.2-.8-.2-2-.1v-.7l-5.4-1.2c-3.7-1-3.7-1-7.2-.7v-.6l-1.2-.3-.7-.2-1.4-.3-3-.6c-10-3.2-10-3.2-19.4-1.4" fill="#A7B9D7"/><path d="m77.8 39.9 22.1 5.5.7.2q2.2.8 3.1 3c.4 4.3.5 10.2-2.2 13.9-1.8 1.4-3.8 1.4-6 1.2q-3.6-.5-7-1.8-2.8-.9-5.8-1.5c-14.5-3-14.5-3-16.3-5.5-1.5-2.6-1-5.3-.6-8l.1-.9c.8-5.3.8-5.3 2.2-6.7 3-1.6 6.6-.2 9.7.6" fill="#AAB2B8"/><path d="M110.2 111h.7q2.6.3 5.1 1.2l3.4.8 4.7 1 1 .3q1.4.6 2 2l.2 1.8v1l-.6 3.3-.4 2.6v1l-.3 1.7c-.3 2.3-.7 4.5-2.5 6.2-1.3.8-2 .8-3.5.8h-2v-.6h-.6a38 38 0 0 1-8-1.6l-1-.3a7 7 0 0 1-4.3-3.2c-.6-1.1-.4-2.4-.4-3.7v-.8q0-2.6.7-5h.6l.1-.9c.2-1 .4-1.3 1.2-2l-.3-.6.6-1.9-.3.3h-.7c.7-2.6 1.9-3.7 4.6-3.5" fill="#F99A58"/><path d="M82.8 104.5h.8c.8.1.8.1 1.4.4q1 .5 2 .6l.9.2.8.1c6.6 1.3 6.6 1.3 8.4 2.3v.6l.6.3q1.3.7 1.7 2.3c.5 2 0 4.3-.3 6.3L99 120a26 26 0 0 1-1.2 5.2h-.6l-.2.9a5 5 0 0 1-2 2.3c-2.2.7-4.5.2-6.7-.3l-.8-.1c-3.7-.9-7.8-1.8-10.3-4.9a19 19 0 0 1 .2-8.2l.4-3c.5-4.7.5-4.7 2-6.5q1.4-1 3.1-.9" fill="#FA9C58"/><path d="M79.5 128.6h.7q1.2.1 2.3.7l1.6.4 5.8 1.5 1 .2c2.1.6 4 1.3 5.2 3.3q.7 2.1.2 4.4l-.2 3.2q-.2 3.2-1 6.3l-.2.8c-.4 1.4-.7 2.5-2 3.3-3.8 1.5-9-.5-12.9-1.7l-.9-.2c-2.2-.7-2.2-.7-2.8-1.7l-.1-.8c-.6-.4-.6-.4-1.3-.6-.7-1-.7-1.4-.7-2.6v-3c0-2.6 0-2.6.4-3l.1-2.1c.2-2.8.4-5.7 2.1-8q1.3-.5 2.7-.4" fill="#FA9B57"/><path d="m60.3 99.2 1.8.5 1 .2 2.3.6v.6l1 .1 1.1.2 1.2.1q1.9.3 3.2 1.7c.7 1.2.6 2.3.6 3.7v9.4q-.2 1-.7 2l-.1 1.3a6 6 0 0 1-1.5 3.5c-1.6 1.2-3.7 1-5.5.7l-1.8-.5-1.1-.4-.8-.2v-.7h-1v-.6h-.8c-2.4 0-5-1.2-6.8-2.9-1.9-3.5-.9-7.9-.4-11.7l.2-1c.4-2.5 1-4.3 2.3-6.4 1.7-1 4-.5 5.8-.2" fill="#FB9D5A"/><path d="m113.3 135.8 2 .6q.6 0 1 .3l3.6.7q1.7.6 2.9 1.7c.3 1 .3 1.5.3 2.5v4.4c0 .7 0 .7-.3 1.7l-.3 2.2c-.4 3-.7 5.5-3 7.6-2.5 1.6-6.2.4-9-.2l-1-.2c-2.6-.6-5.7-1.3-7.6-3.4-1.4-2.2-.6-5.7-.4-8.2h.7v-1a25 25 0 0 1 .7-7.9q.7-1.4 2-1.8c3-.6 5.6.1 8.4 1" fill="#F99855"/><path d="m73.7 69 1.9.4.6.2 1.7.4c2.4.7 5 1.6 6.3 4 .6 2.1.2 4.3-.3 6.5l-.2.8c-.7 2.7-1.3 4.9-3.7 6.5-3.4 1.7-7.6.5-11.1-.4l-1.8-.5c-2.4-.6-3.9-1.4-5.2-3.5-1-3.1-.1-7 .3-10.2l.2-1q.3-2.2 1.7-4c2.9-1.6 6.7 0 9.6.8" fill="#A4ABB0"/><path d="m56 123.6 1.5.7 2.9.9c6.1 1.5 6.1 1.5 7.2 3.2l1.3.3-.2 9.2-.1.9q-.3 2.8-1.6 5.4l-.3.7q-.4.9-1.3 1.5c-4 1-9.5-.9-13.2-2.7q-2.6-1.5-3.6-4.3-.2-4.5.7-8.8l1-.3v-1q.2-1.3.9-2.5l-.4-.7q1.5-3.3 5.1-2.5" fill="#FA9A58"/><path d="M109.3 77.9q3.6.2 7 1.4l4.6 1.2c1.7.6 3.5 1.2 4.7 2.7 1.4 3.4 0 8.7-1.2 12a9 9 0 0 1-2.6 3.4c-2.9.9-5.8 0-8.6-.7l-1-.3c-2.9-.7-5.2-1.6-6.9-4-1.2-2.6-.1-6.8.3-9.5l.1-1 .2-1 .2-1q.4-3 3.2-3.2" fill="#9FA7AB"/><path d="m120.3 49.8.8.2 2.3.5c6.3 1.6 6.3 1.6 7.9 4 .9 2.7.3 5.6-.2 8.3l-.2.7c-.4 2-1 3.5-2.6 4.6-3 1.5-6.2.5-9.3-.4l-2.1-.5-.7-.1-1.4-.3q-3-.5-4.7-2.9c-1.5-3.5 0-10 1.2-13.5 2-3 6.1-1.3 9-.6" fill="#A2AAAE"/><path d="m99.5 45.3.8.2q2.4.7 3.4 3c.4 4.4.5 10.3-2.2 14-1.8 1.4-3.8 1.4-6 1.2a26 26 0 0 1-7.1-1.8l-.8-.2-.7-.2c-.6-.3-.6-.3-1.2-1.2q-.2-1.7.4-3.2l2.2-7.3.3-1 1.2-4 2-.2 1.2-.1c2.5-.2 4.2 0 6.5.8" fill="#A2A9B0"/><path d="M89.8 44.7c4 0 4 0 5.7.7q0 3-.8 6.1l-.3 1-1.8 6.3-.3.7c-.5 1.7-.5 1.7-1.2 2l-2 .1H88c-1 0-1 0-1.8-.7-.7-1-.7-1.4-.5-2.5L86 57l2.2-7.3.3-1z" fill="#788595"/><path d="M110.7 109.7v.6l.6.1 9.6 1.8v.6l.7.1c4.7.7 4.7.7 6.2 2.7.8 2.7.2 5.2-.4 7.8q-.3 1.4-.2 2.6c0 1.1-.2 1.7-.6 2.7l-.9 3c-.5 1.7-1 2.6-2.6 3.6h-2l-.6.3c-.6 0-.6 0-1.5-.3q-2.2-.7-4.6-1a41 41 0 0 1-8.4-2.5q-.4 0-.7-.3-1-.5-1.3-1.4l-1.2-2v-4q-.1-2.2.6-4.3l.2-1.4c.6-6.5.6-6.5 2.2-8.2q2.3-1 5-.5m-3.8 2q-1 1.2-1.3 2.7h.7l-.2.8c-.2.8-.2.8-.1 1.8l-1 1.5v1h-.6q-.8 2.9-.8 5.7v.8c0 1.9.3 3 1.5 4.4 1 1 2.1 1.3 3.4 1.8l.6.2a29 29 0 0 0 8.9 1.7v.6c2.7.2 2.7.2 5.3-.5a9 9 0 0 0 2.6-6l.2-1 .2-1.2q0-1.2.3-2.3l.1-1 .3-1.9q.3-1.2.3-2.6v-1c-.2-1.2-.5-1.6-1.4-2.5l-3-1q-2.5-.7-5-1l-2.8-.8q-2.4-.7-4.9-1H109c-1.2 0-1.2 0-2 .8" fill="#E5CABE"/><path d="M104 133.7c3-.1 5.5.3 8.4 1.1q3.3 1.1 6.5 1.5v.6h.7q1.4 0 2.5.6v.7h.7c2.3 3 1.2 7.3.8 10.8l-.1 1c-.4 3-1 6-2.6 8.5q-1.1 0-2.3.3-.4 0-.8.3a6 6 0 0 1-3.4 0l-.6-.2c-10.5-2.2-10.5-2.2-12.5-5-1.5-3-.7-6.8-.3-10l.2-1 .5-4.3q.2-1.4.8-2.6h.6l.3-1.3h.7zm-.6 2c-.5.9-.5.9-.7 2l-.2.7a27 27 0 0 0-.3 7h-.7c-.6 4.3-.6 4.3.4 8.3 2.1 2.3 5.8 3 8.7 3.6l1 .3c4 .8 4 .8 7.8 0 2.4-2.2 3-5.3 3.3-8.4v-.8c0-.7 0-.7.4-1.7v-4.2c.1-2.2.1-2.2-1-4a10 10 0 0 0-4.5-1.7q-3-.5-5.7-1.4c-3-.8-5.6-1.4-8.5.2" fill="#E4C3B0"/><path d="m81.9 127.7.7.7c1 .7 1.3.7 2.5.6l1 .6q1 .3 2.1.3v.7l.6-.2c.9-.2 1.2 0 2 .5l1 .1c2.2.4 3.5 1.5 5 3.1q.5.9.6 1.9l.2.6a5 5 0 0 1-.2 2.2l-.1.8-.2.8-.6 3.8c-.9 7.1-.9 7.1-3.2 9.5q-1.7.4-3.5.4h-1q-1.2 0-2.5-.4v-.6l-3.5-.4v-.6h-.6q-2-.4-4-1.1c-1-.5-1-.5-2-.5v-1h-.6c-1.6-1.2-2-2.7-2.3-4.7q.1-4.6.8-9.4l.1-1c.2-2 .5-3.8 1.8-5.4.5-.3.5-.3 1.1-.3v-.7h3.2c1 .1 1 .1 1.6-.3m-5.4 1.6c-1.7 2.6-1.7 5.9-1.8 8.9-.1 1-.1 1-.4 1.2l-.1 3.6v1c0 2 0 2 .7 3.8.6.6.6.6 1.3.5l.2.8c.3.9.3.9 1.2 1.2l1 .3 1 .3 1.1.3 1.1.4c5.4 1.6 5.4 1.6 10.8 1.2q1.4-.6 1.9-2l.2-.6.2-.8.2-.8.2-.9q.7-3.2.8-6.5 0-1.5.4-3a6 6 0 0 0-1-4.5c-2-2-5.2-2.4-7.8-3.1l-.8-.3-3.9-1-2-.6c-1.6-.1-3.2-.2-4.5.6" fill="#D8C9C7"/><path d="M82.8 104.5h.8c.8.1.8.1 1.4.4q1 .5 2 .6l.9.2.8.1c6.6 1.3 6.6 1.3 8.4 2.3v.6l.6.3q1.3.7 1.7 2.3c.5 2 0 4.3-.3 6.3L99 120a26 26 0 0 1-1.2 5.2h-.6l-.2.9c-.4 1-.4 1-1.1 1.4l-.6.2.6-1c1.3-2.3 1.4-5 1.7-7.6q.1-1.4.5-2.8l.2-2.3v-1.8l.2-2.2-8.5-3-3.6-.8c-1.7-.4-1.7-.4-2-.7q-2.1-.4-3.9.5-.9 1-1.2 2l.6.3-.6.9c-1 1.6-1 3.4-1.2 5.2l-.2 2.1-.1 1c-.1.6-.1.6-.4 1l-.2 1.7-.1 1v.7h-.4q-.1-3.6.5-7.1l.4-3c.5-4.7.5-4.7 2-6.5q1.4-1 3.1-.9" fill="#EFBA93"/><path d="M54.4 123h4v.6l1-.3 1.9 1 5.3 1.6c.7.2.7.2 1.7.9v.6h.6c1.4 2.6 1.3 5.4.5 8.2q-.3 1.4-.2 2.9l-.4 3.4q-.8 2.6-2.4 4.8l-1-.3q.4-1.4 1.3-2.3c1.3-1.7 1.4-3.6 1.5-5.7v-.9l.7-8.8-1.6-.3-.3-1c-.6-.3-.6-.3-1.3-.4l-1-.3-.9-.2-2-.7-1-.3-2-.6c-2.1-.7-4.1-1.3-6.4-.7q-.9.6-1.1 1.6c-.2.8-.2.8-.1 2l-.7 1.2-.3 1.3h-.6c.2-4.7.2-4.7 1.7-6.7q1.5-.8 3-.7" fill="#E7C9B9"/><path d="M83.2 104h.9c.6 0 .6 0 1 .3l1 .1c1.2.2 1.2.2 1.5.5l2.2.3v.7h.6q2.3 0 4.5 1-1.9.3-3.7-.2h-.8c-2-.5-4.1-.8-6-1.8h-4.1l-.3 1-1 .6c-1.1 2.6-1.2 5.6-1.4 8.4l-.5 3c-.3 3.2-.3 3.2 1 6 3.9 3 10.9 5 15.8 4.5a5 5 0 0 0 2.9-2.3l.3-1 .6.7c-.7 1.5-1.4 2.8-3.1 3.4q-3.7.5-7.2-.6c-.7-.3-.7-.3-1.5-.4l-3.5-1-.7-.3-2-.8-1-.3a6 6 0 0 1-2.5-3.5q-.2-2 0-4v-1c.2-2.5.2-2.5.6-2.9l.2-1.7q.2-2.8.8-5.6h.6v-.5q.6-1.4 1.9-2.3 1.4-.5 3-.4" fill="#E6D8D0"/><path d="M104 133.7h4.2v.4h-.6l-.7.2-.8.2q-1.3.3-2.4 1.1a26 26 0 0 0-1.5 9.9h-.7c-.4 4.7-.4 4.7 1.3 8.8a24 24 0 0 0 9.2 3l2.8.5v.7h3.8l-.3.6c-1.7.4-2.8.2-4.4-.3l-1.3-.3-.8-.2-1.5-.3c-7.1-1.6-7.1-1.6-9-4.2-1.4-3-.7-6.6-.3-9.8l.2-1 .5-4.4q.2-1.4.8-2.6h.6l.3-1.3h.7z" fill="#E7C5B5"/><path d="M86.3 130.3h1.5l.9-.1q1 0 2 .7l1.1.1c2.2.4 3.5 1.5 5 3.1q.5.9.6 1.9l.2.6a5 5 0 0 1-.2 2.2l-.1.8-.2.8q-.4 1.8-.6 3.8c-.9 7.1-.9 7.1-3.2 9.5q-1.7.4-3.5.4h-1q-1.2 0-2.5-.4v-.6q-.4 0-.7-.2l-.9-.2-.3-.6.9.2c4 .8 4 .8 8-.2q1.3-1.8 1.6-4l.2-.8q.6-3 .7-6.1l.3-3q.4-2.4-1-4.5c-1.6-1.3-3.4-1.7-5.4-2.3l-3.4-.8z" fill="#D7BFBD"/><path d="M66.7 101.4c2.1.2 3.6.3 5.2 1.8.7 1.2.6 2.3.6 3.7v9.4q-.2 1-.7 2l-.1 1.3a6 6 0 0 1-1.5 3.5c-1.6 1.2-3.7 1-5.5.7l-1.8-.5-1.1-.4-.8-.2v-.4h.7l3 .1h1c2 .1 2 .1 3.9-.7q1-1.7 1.2-3.8l.1-.8c1.3-6.9 1.3-6.9.5-13.8h-.8q-2-.6-4-1.6z" fill="#DBB4AA"/><path d="M113.6 110.7q3.6 1 7.3 1.5v.6l.7.1c3.5.5 3.5.5 5 1.8v1l-.7-.4a22 22 0 0 0-7.9-2.3l-3-.8q-2.2-.7-4.8-1H109c-1.2 0-1.2 0-2 .8q-1 1-1.4 2.4h.7v-.6l.6.3-.3 1c-.4 1.2-.4 1.2 0 1.9l-1 .6-.6 1.9h-.6c.1-3.5.3-6.7 2.8-9.2 2-1 4.5-.1 6.4.4" fill="#F1B990"/><path d="M95.5 142.6h.3q.1 2.9-.7 5.8l-.2.8c-.6 2.6-.6 2.6-2 3.5-3.9 1.5-9.1-.5-12.9-1.7l-1-.3-.8-.3-.8-.2c-.6-.3-.6-.3-.9-1l.9.3 1.1.2 1.2.3 3 .5 2.6.8c2 .9 5 1.2 7 .5.7-.3.7-.3.9-1v-.9l.7-2.2h.7v-.8q0-2.2 1-4.3" fill="#E0865C"/><path d="M79.5 128.6h.7q1.2.1 2.3.7l2 .5 1 .3.8.2-.6.6-2-.4-1-.3c-.8-.3-.8-.3-1.1-.6h-1.7l-1-.1c-.9 0-.9 0-1.5.8a8 8 0 0 0-1 3.1l-.2.7-.9 5.5v.8c-.4 2.2-.6 4 .3 6v1.6c-.8-.7-1.3-1-1.5-2v-3l.1-1c0-2.5 0-2.5.4-2.9l.1-2.1c.2-2.8.4-5.7 2.1-8q1.3-.5 2.7-.4" fill="#EBB68D"/><path d="m60.3 99.2 1.8.5 1 .2 2.3.6v.6h1l-.4.6-.6-.1-2.8-.8-1-.3q-2.9-.8-5.7-.7c-1 .7-1 .7-1.6 1.6v.7l.7.3-.5.3c-1.4 1.7-1.5 4.5-2 6.6l-.2 1.6-.8 2q.2-3.6.7-7.1l.1-.8c.3-2.2 1-3.8 2.2-5.6 1.7-1 4-.5 5.8-.2" fill="#F0BD94"/><path d="M126.6 114.7h.6c1.7 2.8.8 5.7.2 8.7q-.3 1.4-.2 2.6c0 1.1-.2 1.7-.6 2.7l-.9 3c-.5 1.7-1 2.6-2.6 3.6h-1.3c.3-1 .3-1 1.2-1.4 1.9-1.4 2.3-3.5 2.7-5.7q0-1.2.3-2.3 0-1.2.3-2.3l.1-1 .3-1.7q.3-1.4.2-2.7v-1z" fill="#C7A1A0"/><path d="M123 141h.4v5.7a26 26 0 0 1-.6 6.7l-.3 1-.2 1-.2 1q-.4 1.2-1.2 2-2 .6-4.1.2h-1.1l-.9-.1v-.4h.7c2.6-.1 2.6-.1 4.7-1.5q2-3.9 2.2-8.2c0-.7 0-.7.4-1.7v-2l.1-.9v-.8z" fill="#C79F9C"/><path d="M71.8 104.3h.3c.5 14 .5 14-2.5 17.9-2.4 1.2-5.8.5-8.3-.2l-.6-.6 2.9.2c.9.1.9.1 1.5.4h2.1q1 0 2-.3.9-2.7.9-5.5c0-.8 0-.8.4-1.1l.3-2.4v-.8q.3-1 .3-2.3l.2-1.5z" fill="#EC8852"/><path d="M56.5 123.3q1.8.4 3.4 1.2l3.1.9c2.5.6 4 1.2 5.6 3.3l-1.3-.3-.3-1c-.6-.3-.6-.3-1.3-.4l-1-.3-.9-.2-2-.7q-.6 0-1-.3l-2-.6c-2.1-.7-4.1-1.3-6.4-.7q-.9.6-1.1 1.6c-.2.8-.2.8-.1 2l-.7 1.2-.3 1.3h-.6c.2-4.6.2-4.6 1.6-6.6 1.4-1 3.7-.6 5.3-.4" fill="#EFB187"/><path d="m98.7 111 .6.3q.5 1.8 0 3.8l-.4 4.2q-.2 3-1.2 5.9h-.6l-.2.9c-.4 1-.4 1-1.1 1.4l-.6.2.6-1c1.3-2.2 1.4-4.8 1.7-7.4q.1-1.7.6-3.3l.5-3.3v-1.8" fill="#D5BAB6"/><path d="M104.6 135.3h.7l-.6.8c-.7.8-.7.8-1 1.8q.6 0 1 .3l-.3 1.2-.1.7c-.2.6-.2.6-.7 1-.8.9-.8 2-1 3.2l-.1.7a68 68 0 0 0-.7 7.4c-.6-1-.7-1.2-.6-2.3v-.8l.1-.9v-.8l.2-2.1h.7v-1q-.3-4.5 1.2-8.9c.3-.3.3-.3 1.2-.3" fill="#EFA878"/><path d="M97.7 112.8h.3q.3 4.1-.4 8.3v.9c-.4 2.5-1 4.5-2.7 6.4-2.2.7-4.5.2-6.7-.4q2.3-.4 4.4-.3 1.2 0 2.3-.3v-1h.6q1.5-6.7 2.2-13.6" fill="#DD855D"/><path d="M55 98.3a20 20 0 0 1 10.7 2q1.5.8 3.3.9l1.2.1 1 .1c0 .7 0 .7.2 1.3l-.5-.2q-2.7-.8-5.5-1.4v-.6l-1.2-.1-3.7-.7c-2.6-.7-2.6-.7-5.2-.5-1.7 1.3-2 3-2.6 5h-.3v-3.4h.7l.3-1.3h1z" fill="#E9DACD"/><path d="m78 124.2.6.3a29 29 0 0 0 15.3 3.9 5 5 0 0 0 2.9-2.3l.3-1 .6.7c-.7 1.5-1.4 2.8-3.1 3.4q-3.7.5-7.2-.6c-.7-.3-.7-.3-1.5-.4l-4.3-1.3a7 7 0 0 1-3.5-2.3z" fill="#E3CBBF"/><path d="M110.7 109.7v.3h-.6q-1.6 0-3.1.8c-1.6 1.8-1.8 4-2.1 6.3l-.7 4-.3 1.5-.2 1h-.6c-.4-1.5-.2-2.3.3-3.8l.3-2.1c.6-6 .6-6 2-7.5q2.4-1 5-.5" fill="#E8D0C6"/><path d="m81.9 127.7.7.7c1 .7 1.3.7 2.5.6l1 .6q1 .3 2.1.3v.7q-3.7-.5-7.3-1.6c-2.3-.2-2.3-.2-4.4.6q-1.5 3-1.8 6.2l-.1.9-.3 2.1H74c.3-7.7.3-7.7 1.9-9.6.6-.5.6-.5 1.2-.5v-.7h3.2c1 .1 1 .1 1.6-.3" fill="#E2D3CA"/><path d="M122.4 142h.4c-.2 11.8-.2 11.8-2.4 14.8-1.3 1.2-2.2 1.4-4 1.4h-1.6v-.4h.6q2.1 0 3.9-1.2h.6q1.1-4 1.6-8l.3-.3.2-2.3q0-2 .4-4" fill="#E57E51"/><path d="M68.9 129.3h.3v5.5c.1 4.6-.2 8.2-2.8 12l-1-.4q.4-1.4 1.3-2.3c1.3-1.7 1.4-3.5 1.5-5.6v-.8z" fill="#D3AFAD"/><path d="M103.4 155.6a53 53 0 0 1 8.5 1.6l3 .6v.7h3.7l-.3.6c-1.7.4-2.8.2-4.4-.3l-1.3-.3-4.8-1.1-.9-.2-.8-.2-.7-.2z" fill="#D0C1BF"/><path d="m71.2 27.7 1.2.2q5.3 1 10.4 2.3v.3q-3-.1-6-.9l-.8-.1-2.9-.6C68 27.6 68 27.6 63 28.6h-1c.3-1 .3-1 1-1.4 2.7-.7 5.6 0 8.3.5" fill="#C0D5E7"/><path d="M94.6 149.9h.3c.2 1.4-.3 2.2-1.1 3.3-1 1-2.6.9-4 .9h-1q-1.2 0-2.5-.4v-.6l-.7-.2-.9-.2-.3-.6c.5 0 .5 0 .9.2 4 .8 4 .8 8-.2l1-1.6z" fill="#CCB7B8"/><path d="M153.5 60.3h.3q0 3-.3 6v.7c-.3 1.7-.3 1.7-.7 2.4l-.3 2.4q-.3 3.3-1 6.5h-.2q0-2.3.3-4.7l.6-6.7h.6v-3.2c0-1 0-1 .4-1.2q0-1.2.3-2.2" fill="#999EBA"/><path d="M77.5 109.7h.3q0 3-.3 6.1c-.6 3.1-1 5.8.9 8.5.3.6.3.6.3 1.2-1.3-.4-1.6-1-2.2-2.3-.6-1.6-.4-3.2-.3-4.8v-1c.2-2.6.2-2.6.6-3l.2-1.8q0-1.5.5-3" fill="#E7CFC4"/><path d="M49.6 126.5h.3q0 3-.5 5.7c-.9 5-.9 5 .8 9.5l.3.6q-1 0-1.6-.8c-1-2.3-1-4.4-1-6.8h.7v-4.8h.7v-2.1c0-.7 0-.7.3-1.3" fill="#EAD4CB"/><path d="M76.5 16.9q2.8.3 5.5 1 3.3 1 6.9 1.2-.7 0-1.3.3v.6l-.9-.1-1-.2-1.2-.2h-2c-.6-.1-.6-.1-1.2-.7-.7-.2-.7-.2-1.5-.2q-2-.2-4-.8z" fill="#BFCEE7"/><path d="m110.7 110 2 .1 1.2.1 3.5.7v.7h.5q2.2-.2 4.2.6v.6h.7l1 .2h1c.8.2.8.2 1.8.8l-.4 1-.6-.5a11 11 0 0 0-3.4-1c-.7-.1-.7-.1-1.3-.5v-.6h-.7q-4.8-.4-9.5-1.9z" fill="#E0D4CE"/><path d="m132.6 27.3 2.5.3v.7l.8-.2q2.2-.2 4.3.5l-1 1-1.4-.2h-.7l-1.7-.5h-1.6l-.6-1v.7l-4.1-1c1.5-1 1.7-.9 3.5-.3" fill="#BAC3E0"/><path d="M99 172.6c.7.2.7.2 1.9.1v.6h.8q3 .2 6 1.1 1.4.3 2.7.2v.6q-2.6.1-5.3-.4l-.8-.2-1.6-.3-4.7-.9a7 7 0 0 1-2.8-1q2-.6 3.7.2" fill="#9A99B3"/><path d="M113.6 136.3c6.6.5 6.6.5 9.2 2.8q.5 2 .3 4.3v2.6c0 .7 0 .7-.7 1.7v-6.5q0-1-.3-2c-.6-.4-.6-.4-1.4-.6l-.9-.2-.8-.2-1.5-.5q-2-.7-4-1.1z" fill="#E18E6C"/><path d="M126.6 114.7h.6c1.5 2.4 1 4.7.5 7.3-.5 1.9-.5 1.9-.8 2.2l-.5 2.8-.2.7q-.5-1.7 0-3.6l.2-1.2q0-1 .3-2 .3-1.4.2-2.7v-1z" fill="#CFADAE"/><path d="M95.8 134.7c1.2 1.8.6 4 .2 6v.8l-1.4 6.2h-.4q0-2 .3-4 .6-2.7.9-5.6l.1-1z" fill="#E88B5E"/><path d="m76.5 149.3 2 .4 1.2.3 3 .5 3.3 1 2.9 1v.2c-2.1.2-3.7-.2-5.7-.8l-.8-.3-3.3-1-.9-.2-.8-.3c-.6-.2-.6-.2-.9-.8" fill="#E29667"/><path d="m50.2 46 1 .3-.3 2-.2 1.2c-.2 1-.2 1-.5 1.6l.3 1-.6.9-.2 1.4q0 1.4-.8 2.7a11 11 0 0 1 0-4.4l.3-1.2z" fill="#BECBDD"/><path d="M75.6 134.4q.5 1.7 0 3.6l-.2 1.4v.6l-.4 3-.1 1c0 1 .3 1.5.7 2.4v1.6c-.8-.7-1.3-1-1.5-2v-3l.1-1c0-2.5 0-2.5.4-2.9l.3-1.8q.2-1.5.7-3" fill="#F0A673"/><path d="M118 136.3h1v.6h.6q1.4 0 2.5.6v.7h.7c1.6 2.1 1.4 4.3 1.2 7l-.3 1.5h-.3v-1.1l-.1-1.6v-.7q0-2.4-1.2-4.5-1.4-1.1-3.1-1.6c-.7-.3-.7-.3-1-1" fill="#CEB7B8"/><path d="M71.4 102.7h.7v.6l1 .4c1.3 3 0 8.2-.7 11.4H72v-9.3q.2-1.6-.7-3.1" fill="#DAC6C6"/><path d="m55 102.4-.5.3c-1.4 1.7-1.5 4.5-2 6.6l-.2 1.6-.8 2q.3-4.5 1-8.6h.6l.3-2c1-.2 1-.2 1.6 0" fill="#EFB185"/><path d="M104 133.7h4.2v.4h-.6l-.7.2-.8.2a6 6 0 0 0-2.4 1.1l-.7 2.4-.1.6-.7 3h-.7l.1-1.9.1-1.1q.2-1.4.8-2.6h.6l.3-1.3h.7z" fill="#DBD0D0"/><path d="M98 116.3h.4l-.2 5v2.1l-.5 1.8h-.6l-.2.9c-.4 1-.4 1-1.1 1.4l-.6.2.6-1c1.3-2.3 1.4-5 1.7-7.6q.1-1.4.5-2.8" fill="#D6A192"/><path d="M45.1 79.3h.7q.1 2.8-.5 5.4l-.8 5-.6-.3q0-1.4.3-2.9l.3-4 .3-1.7.2-.8z" fill="#B5C4DB"/><path d="M86.3 130.3h1.5l.9-.1q1 0 2 .7l1.1.1q2.9.4 4.7 2.7v2l-1.1-1.8c-2.2-2.1-6.2-2.6-9-3.3z" fill="#E2C4B5"/><path d="m55.3 144.8 3.8.8q3 .8 6.3.8l-.3.6c-3.3.3-6-.3-9.2-1.2v-.7z" fill="#CCBDC2"/><path d="M55 98.3h1.6l1-.1c.8 0 .8 0 1.8.7h-.8c-2.3 0-2.3 0-4.3 1q-1.1 2.2-1.6 4.4h-.3v-3.5h.7l.3-1.3h1z" fill="#ECE1D9"/><path d="m97 125.2.7.6c-.7 1.5-1.4 2.8-3 3.4-2.3.4-4.5.5-6.5-.8 1.2-.4 1.7-.2 2.9 0q2.8.5 5-1.3c.7-1 .7-1 1-2" fill="#DFC2B6"/><path d="M97.7 112.8h.3q.3 4.1-.6 8.2l-.1.9q-.3 1.9-1.2 3.6c-.5-1 0-2 .1-3.1z" fill="#F08148"/><path d="M67.3 138.5c1 1.6.5 2.9.1 4.6a6 6 0 0 1-2 3q-1.5.2-2.8 0l.3-.6 1-.1c1.2-.1 1.2-.1 1.9-1q.9-1.8 1.1-3.6z" fill="#EC7F51"/><path d="m106.3 113.8.6.3-.3 1c-.4 1.2-.4 1.2 0 1.9l-1 .6-.6 1.9h-.6l.2-3.1a5 5 0 0 1 .7-2.3l1 .3z" fill="#F1AB78"/><path d="M151 79.6q.4 1.7 0 3.6l-.2.7q0 1-.3 2l-.2 1.5-.6 3.6h-.7q-.1-1.5.4-3.1t.5-3.4c0-2 0-2 .4-2.4l.2-1.1c.1-1.1.1-1.1.4-1.4" fill="#9195B4"/><path d="M66.7 101.4c2.1.2 3.7.2 5.2 1.8.7 1 .6 2 .5 3.2v2.3H72v-1l-.2-1.1v-1.3c-.1-1-.1-1-.5-2h-.8q-2-.6-4-1.6z" fill="#EBA77E"/><path d="M56.2 144.5c2-.2 3.5.4 5.3 1q2 .5 4 .6v.3c-3.3.2-6 0-9-1.3z" fill="#E2936C"/><path d="m118.6 24.8.6.1q1.6.4 3.3.1 1.3.1 2.5.7l.3 1c-1.2.4-1.2.2-2.2-.3l-1 .3-1.6-.3-.8-.2-1.7-.5.6-.3z" fill="#BBC6E2"/><path d="M104 120.1h.4v.8l.1 4.4v2.2c.1 1 .1 1 .8 1.8l-.3 1c-1.4-1.7-1.4-3-1.4-5.1v-.9q0-2.1.5-4.2" fill="#ECA77C"/><path d="M78.4 111q.2 3.6-.6 7.2l-.3.3-.2 1.8-.1 1v.7h-.4a39 39 0 0 1 .6-8.6c.4-2.5.4-2.5 1-2.5" fill="#EFAC80"/><path d="M52.1 110.6h.3v3q-.1 1.7.7 3.4v1.9q-1.6-1.4-1.7-3.4-.1-2.5.7-4.9" fill="#EE9E6F"/><path d="M154.4 42.8c.7.7.7.7.7 1.5v8c-.7-.6-.7-.6-.7-1.2v-3q0-1.6.3-3h-.6z" fill="#9296B5"/><path d="M96.1 138.2h.4l-.1 4v1.2q0 3.3-1.2 6.5h-.6l.4-2.5q.7-2.7.7-5.5 0-2 .4-3.7" fill="#D1AAA4"/><path d="M75.2 132.2c.5.8.2 1.2 0 2.2l-.2 3c0 1.7 0 1.7-.4 2l-.1 1.4v1.7l-.1.8-.1 2.2H74q-.4-6.6 1-13z" fill="#E7C6B4"/><path d="M72 108.7h.4v4.4c0 1.7 0 3-1 4.5h-.3a31 31 0 0 1 .6-6.8z" fill="#DAAEA0"/><path d="M147.1 102.7h1q-.4 4-1.3 8l-.6-.4c.2-3.3.2-3.3.6-4.9a8 8 0 0 0 .3-2.7" fill="#969BB6"/><path d="M86.3 130.6c7.2 1.3 7.2 1.3 8.9 2.8l.6 1.3-1.6-1v-.6l-.7-.1q-2.8-.3-5.3-1.5l-1.9-.6z" fill="#EFAB7F"/><path d="M73.3 167.6h2.3q1.4 0 2.8.7l5 1.2v.4q-3.1 0-6.2-1l-3.9-1z" fill="#9D9DB5"/><path d="M100.6 148h.3v3.5h.6l.2.6c.7 1.7.7 1.7 2.1 2.9l.9.3v.3c-.7.1-.7.1-1.6 0a7 7 0 0 1-2.5-3.8z" fill="#DBC6BF"/><path d="M125.3 114.7c1 .5 1.3.7 1.9 1.6a20 20 0 0 1-.6 7h-.4l.4-6.7h-.7z" fill="#DA8E73"/><path d="M145.2 118h.4q-.1 3.9-1 7.8h-.6q0-1.5.3-3.1l.1-1.5z" fill="#9397B3"/><path d="M70.5 27.6v.3h-5.6q-1 0-2 .7h-1c.3-1 .3-1 1-1.4 2.5-.6 5-.1 7.6.4" fill="#BCD1E2"/><path d="m108.7 23 2 .5-.3 1q-2.6-.2-5-1l-1.7-.3c1.6-1 3.2-.5 5-.2" fill="#BBC7E4"/><path d="M95.5 21q3.6 0 7 1c-.7.6-.7.6-1.5.6q-2.9-.2-5.5-1z" fill="#BAC6E2"/><path d="M107.1 134.6q3.3.2 6.5 1.4c-1 .6-1 .6-2 .4l-1.1-.2-1.1-.3-.9-.3v-.6l-1 .2c-1.2.1-1.2.1-2.2-.2q.7-.6 1.8-.4" fill="#F1AE7E"/><path d="m77.1 129.6.7.3-.5.5q-.7 1.2-1 2.6l-1 3.6h-.4c0-2-.1-4.3 1-6z" fill="#F2B182"/><path d="m113.6 133.4 4.4.7v.6h3.8c-1.3 1-1.3 1-2.1.8q-.6 0-1-.3-1.6-.5-3.3-.7c-.9-.1-.9-.1-1.8-1" fill="#DDBCB0"/><path d="m67.3 127 1.6.4c1.2 1.8 1.2 3.9 1 6l-.7 1.3v-1.1c0-3.6 0-3.6-1.9-6.5" fill="#DAC2C1"/><path d="m53.4 119.5 3.7 1.3q1.4.5 3 .6v.6l.9.3q-4-.4-7.6-2.2z" fill="#E9CABA"/><path d="M153.5 60.3h.3q0 3-.3 6v.7l-.3 1.8-.7.3.2-3.1v-2.6c.1-.6.1-.6.5-1z" fill="#9397B2"/><path d="M51.2 111.3h.3v1c0 2.5.2 4.4 1.6 6.6l.3.6c-.8 0-.8 0-1.6-.3q-.8-1.3-.7-2.9v-5" fill="#F3D6C6"/><path d="m41.3 109.7.7.6-.2 1.3-.2.7-.2.8-.2.8a13 13 0 0 1-1.1 3.4 7 7 0 0 1 0-3.5h.6z" fill="#B1C0DA"/><path d="M94.9 108H97v.7l.6.3 1 .7v5h-.3V110l-1.6-.6-2-1z" fill="#E7A682"/><path d="m111 157.8 1.7.2 3.2.2 1 .1c.9 0 .9 0 1.7.2l-.3.6c-1.7.4-2.8.2-4.4-.3l-2.9-.7z" fill="#C0B8C4"/><path d="M105.3 130.3q1.8.3 3.5 1l3.8 1.5c-1 .3-1.5.3-2.5 0l-.7-.3-.8-.3-.7-.2c-1.9-.7-1.9-.7-2.6-1.7" fill="#E99E73"/><path d="M39.8 152.7h.6v.8l.3.8 1.3.7.3.6c.3.7.3.7 1 .9h.6l-.3 1.3a12 12 0 0 1-3.8-4.4z" fill="#A2A5C3"/><path d="M50.8 124.9q.4 0 .7.3l-.2.5c-.2.8-.2.8-.1 2l-.7 1.3-.3 1.3h-.6q.3-2.8 1.2-5.4" fill="#F5B17B"/><path d="M113.6 136.3c6.2.5 6.2.5 7.6 1.9a13 13 0 0 1-4.4-.7l-3.2-1z" fill="#EDAD84"/><path d="M47 66.6c.7.6.7.6.7 1.4s0 .8-.3 1.8V72l-.7.3q-.7-3 .3-5.7" fill="#BDCBE0"/><path d="M110.7 109.7v.3h-.5c-2.3.1-3.5.9-5.2 2.5.1-1 .3-1.5.9-2.3 1.6-.8 3-.6 4.8-.5" fill="#E4D7D0"/><path d="M130.4 62.2h.3q.2 2.4-1 4.7l-1 1-.9-.4.4-.4q1.9-2.2 2.2-5" fill="#949DAE"/><path d="M142.4 140c0 2 0 3.4-.6 5.1q-.4 0-.7-.3l.5-3.4c.2-1.3.2-1.3.8-1.3" fill="#9798B5"/><path d="M75.2 130h.4q0 1.5-.3 3a18 18 0 0 0-.8 4.2l-.2 1.6H74q0-4.5 1.2-8.9" fill="#DBD2D1"/><path d="M88.2 127.7h7c-.3.7-.3.7-1.3 1q-3 .1-5.7-.7z" fill="#E5966B"/><path d="M61.3 124.6q1.6-.2 3.1.5l.9.4.7.3 2.3 1-.4.6-6.6-2.5z" fill="#E1CAC5"/><path d="m66.7 165.4 3.8.7v.9l-2.3-.4-.7-.2q-1.4-.2-2.7-1c.8-.4 1-.2 2 0" fill="#9FA0BB"/><path d="M120.9 143.6h.3q.1 2.8-1 5.3c-.6-.9-.6-.9-.5-1.5l.5-2h.7z" fill="#FB8244"/><path d="M95.5 142.6h.3q.1 3.1-1 6h-.2q-.2-2.6.6-5z" fill="#D9937D"/><path d="M45.1 79.3h.7q.2 2.7-.7 5.3-.4-1-.3-2.2l-.2-.6q0-1.3.5-2.5" fill="#BCCBE2"/><path d="M128.1 175.9c-1.9 1.2-4.4 1-6.6 1 1.9-1 4.6-1.7 6.6-1" fill="#9691AD"/><path d="M95.2 140h.3l-.1 2.6v.8a16 16 0 0 1-.8 4.3h-.4q0-3 .7-5.7 0-1 .3-2" fill="#F0804A"/><path d="m48.3 58 1 .4-.2.5-.8 4.5c-.8-1.2-.6-1.8-.3-3.2V59z" fill="#BCC9DF"/><path d="m127.4 26.1 1 .2 1 .2.6.2h-.6l-.6.3-.3.6-2.6-.3-.3-.6c1-.7 1-.7 1.8-.6" fill="#BBC3E0"/><path d="m69.2 15.3 1.6.6c-.8.5-1.2.6-2.2.6H67l-.9.1c-.7 0-.7 0-1.3-.7h4.4z" fill="#C6D6EF"/><path d="m66.6 15 1 .2h.7v.4l-4.2.6v.7l-.9-.4v-1c1.2-.5 2-.6 3.4-.4" fill="#B7C1D8"/><path d="M89.5 170.8q3 .4 5.7 1.3v.3q-3-.2-6-1z" fill="#999AB3"/><path d="M94.6 149.9h.3c.2 1.2-.1 1.8-.8 2.8l-.8 1-1.3-.3.8-.7q1.1-1.2 1.8-2.8" fill="#C3B3BD"/><path d="M71.4 15.9c.7 0 .7 0 1.4.3q1.5.4 3 .3l-.2 1.3-1-.3-3.8-1z" fill="#BCC9E1"/><path d="M74.3 142.6h.3l.1.8.2 1 .2.9c0 .8 0 .8.5 1.1v1.6c-1-.7-1.3-1-1.4-2.3v-3.1" fill="#E79D6E"/><path d="M134.5 170.8h.6q-.7 1.9-1.9 3.5l-1-.3a11 11 0 0 1 2.3-3.2" fill="#C3BED0"/><path d="M109.1 156.9q3 .3 5.7 1v.2l-5-.3v-.6z" fill="#D2ACA0"/><path d="M67 143.6h.3c-.1 1.7-.1 1.7-.3 2.5-.7.5-.7.5-1.3.6 0-1.5.4-2 1.3-3.1" fill="#D1A4A5"/><path d="m120.9 112.5 4 .5c.7.2.7.2 1.7.8l-.4 1-.6-.5q-1.6-.8-3.4-1c-.7-.1-.7-.1-1.3-.8" fill="#DFC6BD"/><path d="M83.5 169.9q2.8-.2 5.7 1v.2q-3 .2-5.7-1z" fill="#9B9BB6"/><path d="M96.5 136.6h.3l.2 2.4v.7a6 6 0 0 1-.5 3.5H96z" fill="#D7B5AF"/><path d="m76.5 16.9 1.9.2 1 .2c.9.2.9.2 1.5.8h-3c-1 0-1 0-2-.6z" fill="#C0C9E2"/><path d="M121.5 156.2c.3 1 .3 1 0 1.7q-1.1.9-2.5.9v-1c.9-.7 1.3-1 2.5-1z" fill="#BCADBA"/><path d="m97 125.2.7.6q-.6 1.4-1.6 2.6c-1.2.3-1.2.3-2.2.3l2-1.4q.9-.8 1.2-2.1" fill="#CFB2B3"/><path d="M70.8 115.4h.3q.1 3-1 6c-.6-2 0-4.1.7-6" fill="#E78A5B"/><path d="M92 43.5q1 0 2 .3l1 .1.8.2v.3l-3.5.3-.6-1z" fill="#B0B9C4"/><path d="m76.5 149.3 3.4.6q1.3.3 2 1.3-2.7-.4-5-1.3z" fill="#DF9E78"/><path d="M124.7 133.1v1c-1 1-1.4 1.2-2.9 1.2l.3-1 2.2-.9z" fill="#C3B1B8"/><path d="m86 129.6 2.2.3v.7l-2.8-.5-1-.2-1.9-.3v-.3c1.5-.3 2.2-.4 3.5.3" fill="#E6CCBE"/><path d="M126.6 124.2c.6.7.6.7.7 1.7q-.1 1.5-.7 2.8l-.4 1h-.3z" fill="#BFA9B0"/><path d="M131 123.3h.6q0 2.3-.6 4.4h-.3q0-2.2.3-4.4" fill="#A8B0C9"/><path d="m78 124.2 2.9 1.3.7.4.6.2v.4c-1.5 0-2.3 0-3.5-1z" fill="#E5C3AA"/><path d="M69.9 119.5c.3 1 .3 1 0 1.8-.4.7-.4.7-1.3 1.4h-2.2q1.4-.8 2.8-1z" fill="#EF834F"/><path d="M140.2 154.7q.4 1.4 0 2.9l-.2.8-.1.7h-.4V155z" fill="#9695B1"/><path d="M104.6 135.3h.7l-.7 1.1-.4.7-.5.4h-.6c.3-2.2.3-2.2 1.5-2.2" fill="#EDB28D"/><path d="M123 113.5c1.7.1 2.6.4 3.9 1.6l-.3.6-3.5-2z" fill="#E9AE92"/><path d="m111.7 23.2.3.6h2.2l-.3 1.3-1.3-.3-.7-.1-.6-.2q0-.6-.3-1z" fill="#BBC6E1"/><path d="M125.3 114.7c1.2.6 1.2.6 1.6 1v3.8h-.3v-2.9h-.7z" fill="#ED9368"/><path d="M55 102.4q-.2 0-.5.3-1 1.3-1.4 2.9c-.5-1.3-.2-2 .3-3.2 1-.3 1-.3 1.6 0" fill="#F7AF78"/><path d="m66.7 101.4 2.3.2q1.1.2 2.1.8-2 .6-4-.4l-.4-.3z" fill="#ECBA94"/><path d="M42.3 98c.8.7.7 1 .7 2.2v1.5l-1 .7z" fill="#B6C2DB"/><path d="m114.8 24.1 2.6.4v1H115l-.6-.7z" fill="#BAC5E0"/><path d="M125 127.4h.3q.2 2.1-.6 4.1l-.7.3z" fill="#EA7E4D"/><path d="m51.8 123.3.6.3-1 1.3h-.6l-.6 2.8c-.4-1.5 0-2 .6-3.5z" fill="#ECBF9E"/><path d="M76.8 122q1.3 1.2 2 2.9v.6c-1-.3-1-.3-1.6-1a4 4 0 0 1-.4-2.5" fill="#E3CBBB"/><path d="m50.8 41.6 1 .6-.1 1.4v.8l-.2.6-.7.4-.2-2.4c0-.8 0-.8.2-1.4" fill="#C6D3E3"/><path d="M51.8 35.5h.6v1c0 1.2 0 1.2.3 2.2l-1 .6a8 8 0 0 1 0-3.8" fill="#C1CFE1"/><path d="M44.2 158.1c2.3.8 2.3.8 3.2 1.3l.3 1q-1.4-.3-2.5-1.2l-.6-.4-.4-.3z" fill="#A2A1BD"/><path d="m106.3 111.3 1 .3q-.8 1.5-2 2.5c.2-1.2.3-1.8 1-2.8" fill="#F0B68A"/><path d="m133.8 170.5.7.6-2.2 2.6-.4-.7 1.2-1.4z" fill="#9694B2"/><path d="M87.6 152.1q2.1-.1 4.1.6v.4H89v-.7q-.7 0-1.3-.3" fill="#E98D56"/><path d="M74.3 146.7c1.8 1.5 1.8 1.5 2.2 2.6l-1.9-.7z" fill="#E3C1AF"/><path d="M51.2 142.6q1.6.3 3.1 1.3l-.6.3c-2.1-.8-2.1-.8-2.5-1.6" fill="#E79F73"/><path d="M87.6 127q2-.2 3.8.7v.3H89c-.8-.2-.8-.2-1.4-.8" fill="#F08A49"/><path d="M51.2 116.6a11 11 0 0 1 2.2 2.9c-.8 0-.8 0-1.6-.3-.7-1-.6-1.4-.6-2.6" fill="#E8DAD4"/><path d="M64.8 27.3q-1.3 1.1-2.9 1.3l.3-1c1-.3 1.6-.3 2.6-.3" fill="#B8CBDB"/><path d="M102.2 153.7q1.3.1 2.5 1v.6c-1.8-.5-1.8-.5-2.5-1.6" fill="#E7A378"/><path d="M95.5 125.5h.3c.1.7.1.7 0 1.6-.5.6-.5.6-1.2 1l-1-.4 1.3-.3v-1h.6z" fill="#ED7F48"/><path d="M87.6 61.5h3.2l.3 1-3.5-.7z" fill="#A9B7C4"/><path d="M58.8 39v2.6h-1c.3-2.6.3-2.6 1-2.6" fill="#C6D9E5"/><path d="M55.3 144.8c2 .3 2 .3 3.1 1H56v-.7z" fill="#D9C1BA"/><path d="m51.8 143.6 2.2.4.6.2.4.6h-1.3l-.7-.1c-.6-.2-.6-.2-1.2-1.1" fill="#E0C9BF"/><path d="M94.6 132.8c1.5.6 1.5.6 1.9 1v1.8z" fill="#E5B9A7"/><path d="M53 118.9c1 0 1 0 2 .3l.6 1q-1.6-.1-2.5-1.3" fill="#EEA476"/><path d="m144 85.6.6.3-.6 3.2h-.7z" fill="#9CABCE"/></g><defs><linearGradient id="b" x1="182.8" y1="-52.9" x2="41.3" y2="206.1" gradientUnits="userSpaceOnUse"><stop stop-color="#B9B9C7"/><stop offset="1" stop-color="#5A5A61"/></linearGradient><clipPath id="a"><path fill="#fff" d="M0 0h192v192H0z"/></clipPath></defs></svg>